<svg width="19" height="23" viewBox="0 0 19 23" fill="none" xmlns="http://www.w3.org/2000/svg">
<path d="M18.973 16.2C18.4555 17.3494 18.2061 17.8631 17.5405 18.8775C16.6086 20.295 15.2942 22.065 13.6705 22.0763C12.2249 22.0894 11.8517 21.1331 9.88862 21.15C7.92737 21.1594 7.51862 22.095 6.07112 22.08C4.4455 22.065 3.20237 20.4713 2.2705 19.0556C-0.335752 15.0862 -0.611376 10.4325 0.999248 7.9575C2.13925 6.2025 3.94112 5.17125 5.63425 5.17125C7.35925 5.17125 8.443 6.11812 9.868 6.11812C11.2517 6.11812 12.0936 5.16937 14.0886 5.16937C15.5961 5.16937 17.1899 5.99062 18.3299 7.40812C14.6024 9.45187 15.208 14.775 18.973 16.2ZM12.5736 3.585C13.2992 2.65313 13.8505 1.33875 13.6499 0C12.4667 0.0806251 11.083 0.83625 10.2749 1.815C9.54175 2.7075 8.93425 4.03125 9.1705 5.31187C10.4624 5.35313 11.7992 4.5825 12.5736 3.585Z" fill="#090909"/>
</svg>
