<svg width="18" height="18" viewBox="0 0 18 18" fill="none" xmlns="http://www.w3.org/2000/svg">
<path d="M11.8229 3C12.2407 3.00001 12.6503 3.11635 13.0057 3.33598C13.3611 3.5556 13.6483 3.86984 13.8352 4.2435L14.8724 6.31725C15.0554 6.24225 15.2377 6.1665 15.4147 6.07875C15.5927 5.98984 15.7988 5.97529 15.9875 6.0383C16.1763 6.10131 16.3323 6.23672 16.4212 6.41475C16.5101 6.59278 16.5246 6.79883 16.4616 6.98759C16.3986 7.17634 16.2632 7.33234 16.0852 7.42125C15.7147 7.60575 15.5452 7.66275 15.5452 7.66275L16.2622 9.0975C16.4189 9.41025 16.4999 9.7545 16.4999 10.104V12C16.4999 12.3166 16.4331 12.6296 16.3039 12.9185C16.1746 13.2075 15.9859 13.466 15.7499 13.677V14.625C15.7499 14.9234 15.6314 15.2095 15.4204 15.4205C15.2094 15.6315 14.9233 15.75 14.6249 15.75C14.3266 15.75 14.0404 15.6315 13.8294 15.4205C13.6185 15.2095 13.4999 14.9234 13.4999 14.625V14.25H4.49993V14.625C4.49993 14.9234 4.38141 15.2095 4.17043 15.4205C3.95945 15.6315 3.6733 15.75 3.37493 15.75C3.07656 15.75 2.79042 15.6315 2.57944 15.4205C2.36846 15.2095 2.24993 14.9234 2.24993 14.625V13.677C1.78943 13.2645 1.49993 12.666 1.49993 12V10.104C1.50007 9.75484 1.58147 9.41051 1.73768 9.09825L2.45468 7.66275C2.27296 7.58756 2.09339 7.50728 1.91618 7.422C1.82778 7.37814 1.7489 7.31727 1.68407 7.24286C1.61924 7.16846 1.56972 7.082 1.53837 6.98843C1.50702 6.89485 1.49444 6.79601 1.50136 6.69757C1.50827 6.59913 1.53455 6.50302 1.57868 6.41475C1.66941 6.23751 1.82628 6.10312 2.01535 6.04066C2.20442 5.9782 2.41047 5.99269 2.58893 6.081C2.76593 6.166 2.94543 6.24475 3.12743 6.31725L4.16468 4.2435C4.35157 3.86984 4.63881 3.5556 4.99421 3.33598C5.34961 3.11635 5.75914 3.00001 6.17693 3H11.8229ZM14.1254 8.178C12.8504 8.58075 11.0362 9 8.99993 9C6.96368 9 5.14943 8.58 3.87443 8.178L3.07943 9.768C3.02716 9.87229 2.99994 9.98734 2.99993 10.104V12C2.99993 12.1989 3.07895 12.3897 3.2196 12.5303C3.36026 12.671 3.55102 12.75 3.74993 12.75H14.2499C14.4488 12.75 14.6396 12.671 14.7803 12.5303C14.9209 12.3897 14.9999 12.1989 14.9999 12V10.104C14.9998 9.9876 14.9726 9.87282 14.9204 9.76875L14.1254 8.178ZM5.62493 9.75C5.9233 9.75 6.20945 9.86853 6.42043 10.0795C6.63141 10.2905 6.74993 10.5766 6.74993 10.875C6.74993 11.1734 6.63141 11.4595 6.42043 11.6705C6.20945 11.8815 5.9233 12 5.62493 12C5.32656 12 5.04042 11.8815 4.82944 11.6705C4.61846 11.4595 4.49993 11.1734 4.49993 10.875C4.49993 10.5766 4.61846 10.2905 4.82944 10.0795C5.04042 9.86853 5.32656 9.75 5.62493 9.75ZM12.3749 9.75C12.6733 9.75 12.9594 9.86853 13.1704 10.0795C13.3814 10.2905 13.4999 10.5766 13.4999 10.875C13.4999 11.1734 13.3814 11.4595 13.1704 11.6705C12.9594 11.8815 12.6733 12 12.3749 12C12.0766 12 11.7904 11.8815 11.5794 11.6705C11.3685 11.4595 11.2499 11.1734 11.2499 10.875C11.2499 10.5766 11.3685 10.2905 11.5794 10.0795C11.7904 9.86853 12.0766 9.75 12.3749 9.75ZM11.8229 4.5H6.17693C6.03769 4.50007 5.90121 4.53891 5.78279 4.61216C5.66437 4.68542 5.56868 4.79019 5.50643 4.91475L4.55393 6.8175C5.71493 7.16625 7.27943 7.5 8.99993 7.5C10.7204 7.5 12.2849 7.16625 13.4452 6.8175L12.4934 4.91475C12.4312 4.79019 12.3355 4.68542 12.2171 4.61216C12.0987 4.53891 11.9622 4.50007 11.8229 4.5Z" fill="#737373"/>
</svg>
