<svg width="18" height="18" viewBox="0 0 18 18" fill="none" xmlns="http://www.w3.org/2000/svg">
<path d="M3 10.5524C3.76125 10.5524 4.82325 10.3259 5.49 10.8149L6.8115 11.7824C7.30275 12.1424 7.8345 12.0239 8.38275 11.9384C9.10425 11.8251 9.75 12.4409 9.75 13.2419C9.75 13.4609 8.19525 14.0181 7.971 14.1239C7.75508 14.226 7.51539 14.2672 7.27777 14.2432C7.04014 14.2191 6.81358 14.1307 6.6225 13.9874L5.1315 12.8946" stroke="#737373" stroke-width="1.2" stroke-linecap="round" stroke-linejoin="round"/>
<path d="M9.75 12.75L12.8183 11.3325C13.0888 11.239 13.3807 11.2257 13.6587 11.2942C13.9366 11.3628 14.1889 11.5102 14.385 11.7188L14.8875 12.2445C15.0675 12.432 15.0255 12.7485 14.8028 12.8775L8.91225 16.2983C8.73823 16.4002 8.54509 16.4653 8.34484 16.4894C8.14459 16.5136 7.94151 16.4962 7.74825 16.4385L3 15.0203M9.0015 9C9.0015 9 10.5765 7.32075 10.5765 5.25C10.5765 3.17925 9.0015 1.5 9.0015 1.5C9.0015 1.5 7.4265 3.17925 7.4265 5.25C7.4265 7.32075 9.0015 9 9.0015 9ZM9.0015 9C9.0015 9 11.3018 8.949 12.7515 7.47C14.2013 5.99025 14.2515 3.64275 14.2515 3.64275C14.2515 3.64275 13.299 3.66375 12.234 4.07325M9.0015 9C9.0015 9 6.70125 8.949 5.2515 7.47C3.80175 5.99025 3.7515 3.64275 3.7515 3.64275C3.7515 3.64275 4.704 3.66375 5.769 4.07325" stroke="#737373" stroke-width="1.2" stroke-linecap="round" stroke-linejoin="round"/>
</svg>
