<svg width="19" height="19" viewBox="0 0 19 19" fill="none" xmlns="http://www.w3.org/2000/svg">
<path d="M1.14944 4.16504L0.804588 7.95845C0.75351 8.52025 0.727756 8.80352 0.774512 9.07241C0.816286 9.31266 0.899719 9.54385 1.02143 9.75516C1.15817 9.99257 1.36029 10.1947 1.76223 10.5966L7.15073 15.9851C7.97017 16.8046 8.3801 17.2145 8.85406 17.3685C9.27228 17.5044 9.72351 17.5047 10.1417 17.3688C10.6172 17.2143 11.0303 16.8017 11.855 15.977L15.9777 11.8543C16.8024 11.0296 17.214 10.6175 17.3685 10.142C17.5044 9.72382 17.5036 9.27309 17.3677 8.85487C17.2132 8.37942 16.8022 7.96737 15.9775 7.14275L10.6023 1.76753C10.1967 1.36193 9.99385 1.15911 9.75536 1.02174C9.54405 0.900029 9.31286 0.816241 9.07261 0.774467C8.80146 0.727319 8.5157 0.753241 7.94445 0.805172L4.16524 1.14874C3.18159 1.23816 2.68946 1.28307 2.30458 1.4971C1.96524 1.6858 1.68549 1.96555 1.49679 2.30489C1.28382 2.68785 1.23941 3.17649 1.15088 4.15035L1.14944 4.16504Z" stroke="white" stroke-width="1.5" stroke-linecap="round" stroke-linejoin="round"/>
<path d="M6.31845 6.3181C6.72505 5.9115 6.72505 5.25228 6.31845 4.84568C5.91186 4.43908 5.25216 4.43908 4.84557 4.84568C4.43897 5.25228 4.43858 5.91134 4.84517 6.31794C5.25177 6.72454 5.91186 6.7247 6.31845 6.3181Z" stroke="white" stroke-width="1.5" stroke-linecap="round" stroke-linejoin="round"/>
</svg>
