<svg width="18" height="18" viewBox="0 0 18 18" fill="none" xmlns="http://www.w3.org/2000/svg">
<g clip-path="url(#clip0_1113_5739)">
<path d="M15.75 5.625L12.75 7.125M12.75 7.125L12.375 7.3125L9 9M12.75 7.125V9.75M12.75 7.125L5.625 3.375M9 9L2.25 5.625M9 9V16.125M11.6835 2.5365L13.1835 3.324C14.7967 4.17075 15.6037 4.59375 16.0522 5.355C16.5 6.1155 16.5 7.06275 16.5 8.9565V9.04425C16.5 10.9372 16.5 11.8845 16.0522 12.645C15.6037 13.4063 14.7967 13.83 13.1835 14.6768L11.6835 15.4635C10.3665 16.1543 9.708 16.5 9 16.5C8.292 16.5 7.6335 16.155 6.3165 15.4635L4.8165 14.676C3.20325 13.8293 2.39625 13.4063 1.94775 12.645C1.5 11.8845 1.5 10.9373 1.5 9.045V8.95725C1.5 7.0635 1.5 6.11625 1.94775 5.35575C2.39625 4.5945 3.20325 4.17075 4.8165 3.32475L6.3165 2.53725C7.6335 1.84575 8.292 1.5 9 1.5C9.708 1.5 10.3665 1.845 11.6835 2.5365Z" stroke="#737373" stroke-width="1.2" stroke-linecap="round"/>
</g>
<defs>
<clipPath id="clip0_1113_5739">
<rect width="18" height="18" fill="white"/>
</clipPath>
</defs>
</svg>
