<svg width="18" height="18" viewBox="0 0 18 18" fill="none" xmlns="http://www.w3.org/2000/svg">
<path d="M3.75 7.125C3.75 7.125 1.82137 7.875 1.5 10.5M14.25 7.125C14.25 7.125 16.1786 7.875 16.5 10.5M6.75 7.125C6.75 7.125 8.55 7.56262 9 9.75C9.45 7.56262 11.25 7.125 11.25 7.125M7.5 12.75C7.5 12.75 5.925 13.0312 5.25 15M10.5 12.75C10.5 12.75 12.075 13.0312 12.75 15" stroke="#737373" stroke-width="1.5" stroke-linecap="round"/>
<path d="M9 13.5C10.0355 13.5 10.875 12.6605 10.875 11.625C10.875 10.5895 10.0355 9.75 9 9.75C7.96447 9.75 7.125 10.5895 7.125 11.625C7.125 12.6605 7.96447 13.5 9 13.5Z" stroke="#737373" stroke-width="1.5" stroke-linecap="round" stroke-linejoin="round"/>
<path d="M12.75 7.5C13.9926 7.5 15 6.49264 15 5.25C15 4.00736 13.9926 3 12.75 3C11.5074 3 10.5 4.00736 10.5 5.25C10.5 6.49264 11.5074 7.5 12.75 7.5Z" stroke="#737373" stroke-width="1.5" stroke-linecap="round" stroke-linejoin="round"/>
<path d="M5.25 7.5C6.49264 7.5 7.5 6.49264 7.5 5.25C7.5 4.00736 6.49264 3 5.25 3C4.00736 3 3 4.00736 3 5.25C3 6.49264 4.00736 7.5 5.25 7.5Z" stroke="#737373" stroke-width="1.5" stroke-linecap="round" stroke-linejoin="round"/>
</svg>
