<svg width="18" height="18" viewBox="0 0 18 18" fill="none" xmlns="http://www.w3.org/2000/svg">
<path d="M5.55 5.25H3.45C3.33065 5.25 3.21619 5.29741 3.1318 5.3818C3.04741 5.46619 3 5.58065 3 5.7V12.3C3 12.3591 3.01164 12.4176 3.03425 12.4722C3.05687 12.5268 3.09002 12.5764 3.1318 12.6182C3.17359 12.66 3.2232 12.6931 3.27779 12.7157C3.33239 12.7384 3.39091 12.75 3.45 12.75H5.55C5.60909 12.75 5.66761 12.7384 5.72221 12.7157C5.7768 12.6931 5.82641 12.66 5.8682 12.6182C5.90998 12.5764 5.94313 12.5268 5.96575 12.4722C5.98836 12.4176 6 12.3591 6 12.3V5.7C6 5.58065 5.95259 5.46619 5.8682 5.3818C5.78381 5.29741 5.66935 5.25 5.55 5.25ZM14.55 5.25H12.45C12.3307 5.25 12.2162 5.29741 12.1318 5.3818C12.0474 5.46619 12 5.58065 12 5.7V12.3C12 12.3591 12.0116 12.4176 12.0343 12.4722C12.0569 12.5268 12.09 12.5764 12.1318 12.6182C12.1736 12.66 12.2232 12.6931 12.2778 12.7157C12.3324 12.7384 12.3909 12.75 12.45 12.75H14.55C14.6091 12.75 14.6676 12.7384 14.7222 12.7157C14.7768 12.6931 14.8264 12.66 14.8682 12.6182C14.91 12.5764 14.9431 12.5268 14.9657 12.4722C14.9884 12.4176 15 12.3591 15 12.3V5.7C15 5.58065 14.9526 5.46619 14.8682 5.3818C14.7838 5.29741 14.6693 5.25 14.55 5.25Z" stroke="#737373" stroke-width="1.2" stroke-linecap="round" stroke-linejoin="round"/>
<path d="M6 9H12M0.75 10.8V7.2C0.75 7.08065 0.797411 6.96619 0.881802 6.8818C0.966193 6.79741 1.08065 6.75 1.2 6.75H2.55C2.66935 6.75 2.78381 6.79741 2.8682 6.8818C2.95259 6.96619 3 7.08065 3 7.2V10.8C3 10.9193 2.95259 11.0338 2.8682 11.1182C2.78381 11.2026 2.66935 11.25 2.55 11.25H1.2C1.08065 11.25 0.966193 11.2026 0.881802 11.1182C0.797411 11.0338 0.75 10.9193 0.75 10.8ZM17.25 10.8V7.2C17.25 7.08065 17.2026 6.96619 17.1182 6.8818C17.0338 6.79741 16.9193 6.75 16.8 6.75H15.45C15.3307 6.75 15.2162 6.79741 15.1318 6.8818C15.0474 6.96619 15 7.08065 15 7.2V10.8C15 10.9193 15.0474 11.0338 15.1318 11.1182C15.2162 11.2026 15.3307 11.25 15.45 11.25H16.8C16.9193 11.25 17.0338 11.2026 17.1182 11.1182C17.2026 11.0338 17.25 10.9193 17.25 10.8Z" stroke="#737373" stroke-width="1.2" stroke-linecap="round" stroke-linejoin="round"/>
</svg>
