<svg width="18" height="18" viewBox="0 0 18 18" fill="none" xmlns="http://www.w3.org/2000/svg">
<path d="M6.38226 9.36005C6.23393 9.36005 6.08892 9.40404 5.96558 9.48645C5.84225 9.56886 5.74612 9.68599 5.68935 9.82304C5.63259 9.96008 5.61773 10.1109 5.64667 10.2564C5.67561 10.4019 5.74704 10.5355 5.85193 10.6404C5.95682 10.7453 6.09046 10.8167 6.23594 10.8456C6.38143 10.8746 6.53223 10.8597 6.66927 10.803C6.80632 10.7462 6.92345 10.6501 7.00586 10.5267C7.08827 10.4034 7.13226 10.2584 7.13226 10.1101C7.13226 9.91114 7.05324 9.72037 6.91259 9.57972C6.77194 9.43907 6.58117 9.36005 6.38226 9.36005ZM6.38226 6.00005C6.23393 6.00005 6.08892 6.04404 5.96558 6.12645C5.84225 6.20886 5.74612 6.32599 5.68935 6.46304C5.63259 6.60008 5.61773 6.75088 5.64667 6.89637C5.67561 7.04185 5.74704 7.17549 5.85193 7.28038C5.95682 7.38527 6.09046 7.4567 6.23594 7.48564C6.38143 7.51458 6.53223 7.49973 6.66927 7.44296C6.80632 7.3862 6.92345 7.29007 7.00586 7.16673C7.08827 7.04339 7.13226 6.89839 7.13226 6.75005C7.13226 6.55114 7.05324 6.36037 6.91259 6.21972C6.77194 6.07907 6.58117 6.00005 6.38226 6.00005ZM8.99976 7.50005C8.80085 7.50005 8.61008 7.57907 8.46943 7.71972C8.32878 7.86037 8.24976 8.05114 8.24976 8.25005V9.00005C8.24976 9.19896 8.32878 9.38973 8.46943 9.53038C8.61008 9.67103 8.80085 9.75005 8.99976 9.75005C9.19867 9.75005 9.38944 9.67103 9.53009 9.53038C9.67074 9.38973 9.74976 9.19896 9.74976 9.00005V8.25005C9.74976 8.05114 9.67074 7.86037 9.53009 7.71972C9.38944 7.57907 9.19867 7.50005 8.99976 7.50005ZM15.3748 6.42755C15.116 6.27869 14.8303 6.18279 14.5341 6.14545C14.238 6.10811 13.9373 6.13007 13.6498 6.21005C13.3505 6.29022 13.0717 6.43342 12.8323 6.63005L4.13226 1.59755C4.01825 1.53173 3.88891 1.49707 3.75726 1.49707C3.62561 1.49707 3.49628 1.53173 3.38226 1.59755C3.26641 1.66267 3.16995 1.7574 3.10274 1.87205C3.03553 1.9867 2.99999 2.11715 2.99976 2.25005V12.1276C2.55715 12.2768 2.17339 12.5628 1.9038 12.9443C1.63422 13.3258 1.49274 13.783 1.49976 14.2501C1.49955 14.8365 1.72835 15.3999 2.13742 15.8202C2.54648 16.2405 3.10348 16.4844 3.68976 16.5001H4.12476C6.58231 16.4943 8.99458 15.8383 11.1167 14.5988C13.2387 13.3593 14.995 11.5803 16.2073 9.44255C16.4872 8.93105 16.5577 8.33083 16.4038 7.7684C16.2499 7.20597 15.8837 6.72524 15.3823 6.42755H15.3748ZM4.49976 3.54755L11.9173 7.83005C11.0944 9.05796 9.99425 10.0752 8.70575 10.7995C7.41726 11.5239 5.97649 11.9351 4.49976 12.0001V3.54755ZM14.9023 8.70755C13.7889 10.6693 12.1628 12.2913 10.1982 13.3997C8.23369 14.5082 6.00462 15.0613 3.74976 15.0001C3.55085 15.0001 3.36008 14.921 3.21943 14.7804C3.07878 14.6397 2.99976 14.449 2.99976 14.2501C2.99917 14.1496 3.01879 14.05 3.05744 13.9572C3.09609 13.8644 3.15299 13.7804 3.22476 13.7101C3.36566 13.5742 3.55407 13.4989 3.74976 13.5001H4.13226C6.05805 13.4993 7.94909 12.9871 9.61207 12.0159C11.275 11.0448 12.6503 9.64943 13.5973 7.97255C13.6428 7.89028 13.705 7.81843 13.7799 7.7616C13.8548 7.70478 13.9408 7.66423 14.0323 7.64255C14.2214 7.59065 14.4233 7.61488 14.5948 7.71005C14.7668 7.80254 14.896 7.95853 14.9549 8.14482C15.0137 8.33111 14.9975 8.53301 14.9098 8.70755H14.9023Z" fill="#737373"/>
</svg>
