<svg width="18" height="18" viewBox="0 0 18 18" fill="none" xmlns="http://www.w3.org/2000/svg">
<path d="M12.9375 5.25C12.9375 5.10082 12.8782 4.95774 12.7727 4.85225C12.6673 4.74676 12.5242 4.6875 12.375 4.6875C12.2258 4.6875 12.0827 4.74676 11.9773 4.85225C11.8718 4.95774 11.8125 5.10082 11.8125 5.25V6.1875H10.875C10.7258 6.1875 10.5827 6.24676 10.4773 6.35225C10.3718 6.45774 10.3125 6.60082 10.3125 6.75C10.3125 6.89918 10.3718 7.04226 10.4773 7.14775C10.5827 7.25324 10.7258 7.3125 10.875 7.3125H11.8125V8.25C11.8125 8.39918 11.8718 8.54226 11.9773 8.64775C12.0827 8.75324 12.2258 8.8125 12.375 8.8125C12.5242 8.8125 12.6673 8.75324 12.7727 8.64775C12.8782 8.54226 12.9375 8.39918 12.9375 8.25V7.3125H13.875C14.0242 7.3125 14.1673 7.25324 14.2727 7.14775C14.3782 7.04226 14.4375 6.89918 14.4375 6.75C14.4375 6.60082 14.3782 6.45774 14.2727 6.35225C14.1673 6.24676 14.0242 6.1875 13.875 6.1875H12.9375V5.25Z" fill="#737373"/>
<path fill-rule="evenodd" clip-rule="evenodd" d="M17.0625 6.9884C17.0625 4.4939 15.951 2.6324 14.22 1.95515C12.6187 1.3274 10.6965 1.7969 9 3.38465C7.3035 1.7969 5.38125 1.3274 3.78 1.95515C2.049 2.6324 0.9375 4.4939 0.9375 6.98765C0.9375 8.5769 1.785 10.1399 2.84025 11.4854C3.90675 12.8451 5.24775 14.0624 6.36675 14.9706L6.46725 15.0531C7.36725 15.7844 8.01825 16.3131 9 16.3131C9.9825 16.3131 10.632 15.7844 11.5327 15.0531L11.6332 14.9706C12.7522 14.0631 14.0932 12.8451 15.1597 11.4854C16.215 10.1399 17.0625 8.5769 17.0625 6.9884ZM9.411 4.56515C10.995 2.8709 12.6367 2.54315 13.8105 3.00215C14.9865 3.46265 15.9375 4.80965 15.9375 6.9884C15.9375 8.19665 15.2775 9.5114 14.274 10.7909C13.281 12.0584 12.012 13.2149 10.9245 14.0976C9.87975 14.9451 9.54225 15.1874 9 15.1874C8.45775 15.1874 8.12025 14.9451 7.0755 14.0969C5.988 13.2149 4.719 12.0576 3.726 10.7916C2.72175 9.5114 2.0625 8.19665 2.0625 6.9884C2.0625 4.80965 3.0135 3.4634 4.1895 3.00215C5.36325 2.54315 7.005 2.8709 8.589 4.56515C8.64162 4.62147 8.70526 4.66637 8.77596 4.69707C8.84666 4.72777 8.92292 4.74361 9 4.74361C9.07708 4.74361 9.15333 4.72777 9.22404 4.69707C9.29474 4.66637 9.35837 4.62147 9.411 4.56515Z" fill="#737373"/>
</svg>
