<svg width="20" height="18" viewBox="0 0 20 18" fill="none" xmlns="http://www.w3.org/2000/svg">
<g filter="url(#filter0_d_1497_4640)">
<path d="M17.7077 5.88833C17.7067 6.41868 17.5414 6.9357 17.2346 7.3683C16.9278 7.80091 16.4945 8.12784 15.9943 8.30417C15.7207 8.40688 15.4308 8.45912 15.1385 8.45833C14.6082 8.45734 14.0911 8.29207 13.6585 7.98527C13.2259 7.67846 12.899 7.24518 12.7227 6.745C12.6199 6.47113 12.5676 6.18087 12.5685 5.88833C12.571 6.18083 12.5185 6.47167 12.4143 6.745C12.2381 7.24505 11.9113 7.67824 11.4788 7.98503C11.0464 8.29182 10.5296 8.45716 9.99935 8.45833C9.46914 8.45716 8.95231 8.29182 8.51987 7.98503C8.08744 7.67824 7.76063 7.24505 7.58435 6.745C7.48153 6.47113 7.4293 6.18087 7.43018 5.88833C7.43185 6.18083 7.38018 6.47167 7.27602 6.745C7.09969 7.24518 6.77275 7.67846 6.34015 7.98527C5.90755 8.29207 5.39053 8.45734 4.86018 8.45833C4.56852 8.46 4.27685 8.40833 4.00435 8.30417C3.50417 8.12784 3.07089 7.80091 2.76408 7.3683C2.45728 6.9357 2.29201 6.41868 2.29102 5.88833L2.67602 4.53583L3.60102 1.8975C3.71888 1.56213 3.93795 1.27161 4.22798 1.06607C4.51801 0.86052 4.8647 0.750083 5.22018 0.75H14.7785C15.1339 0.750255 15.4804 0.860773 15.7702 1.06631C16.0601 1.27184 16.279 1.56226 16.3968 1.8975L17.3218 4.53583L17.7077 5.88833Z" stroke="white" stroke-width="1.5" stroke-linecap="round" stroke-linejoin="round"/>
<path d="M15.9936 8.3042V12.7409C15.9934 13.195 15.8129 13.6304 15.4918 13.9515C15.1707 14.2727 14.7352 14.4531 14.2811 14.4534H5.71529C5.49033 14.4535 5.26755 14.4093 5.05969 14.3232C4.85182 14.2372 4.66294 14.1111 4.50383 13.9521C4.34472 13.7931 4.2185 13.6042 4.13239 13.3964C4.04628 13.1886 4.00195 12.9658 4.00195 12.7409V8.3042M7.42945 11.8842H12.5678" stroke="white" stroke-width="1.5" stroke-linecap="round" stroke-linejoin="round"/>
</g>
<defs>
<filter id="filter0_d_1497_4640" x="-2.45898" y="0" width="24.916" height="23.2034" filterUnits="userSpaceOnUse" color-interpolation-filters="sRGB">
<feFlood flood-opacity="0" result="BackgroundImageFix"/>
<feColorMatrix in="SourceAlpha" type="matrix" values="0 0 0 0 0 0 0 0 0 0 0 0 0 0 0 0 0 0 127 0" result="hardAlpha"/>
<feOffset dy="4"/>
<feGaussianBlur stdDeviation="2"/>
<feComposite in2="hardAlpha" operator="out"/>
<feColorMatrix type="matrix" values="0 0 0 0 0 0 0 0 0 0 0 0 0 0 0 0 0 0 0.25 0"/>
<feBlend mode="normal" in2="BackgroundImageFix" result="effect1_dropShadow_1497_4640"/>
<feBlend mode="normal" in="SourceGraphic" in2="effect1_dropShadow_1497_4640" result="shape"/>
</filter>
</defs>
</svg>
