<svg width="20" height="20" viewBox="0 0 20 20" fill="none" xmlns="http://www.w3.org/2000/svg">
<rect width="20" height="20" rx="3" fill="#4BBDCF"/>
<path d="M4.71857 8.17062H6.98232V15.4544H4.71857V8.17062ZM5.85107 4.54562C6.11072 4.54562 6.36452 4.62263 6.58039 4.76691C6.79626 4.91118 6.96448 5.11624 7.06379 5.35614C7.16309 5.59604 7.18901 5.86001 7.13826 6.11464C7.08752 6.36927 6.96239 6.60314 6.77871 6.78664C6.59503 6.97015 6.36105 7.09506 6.10636 7.14556C5.85168 7.19606 5.58774 7.16989 5.34794 7.07036C5.10813 6.97082 4.90323 6.8024 4.75916 6.5864C4.61509 6.3704 4.53833 6.11651 4.53857 5.85687C4.53891 5.50899 4.67733 5.17548 4.92344 4.9296C5.16954 4.68373 5.50319 4.54562 5.85107 4.54562ZM8.40232 8.17062H10.5723V9.17062H10.6023C10.9048 8.59812 11.6423 7.99437 12.7436 7.99437C15.0361 7.98937 15.4611 9.49812 15.4611 11.4544V15.4544H13.1973V11.9106C13.1973 11.0669 13.1823 9.98062 12.0211 9.98062C10.8598 9.98062 10.6623 10.9006 10.6623 11.8556V15.4544H8.40232V8.17062Z" fill="white"/>
</svg>
