<svg width="18" height="18" viewBox="0 0 18 18" fill="none" xmlns="http://www.w3.org/2000/svg">
<path d="M16.0924 5.98008C15.9674 5.93096 15.8343 5.90591 15.7 5.90625H15.6859C14.9768 5.9168 14.1816 6.5809 13.7643 7.58531C13.264 8.78695 13.4943 10.0164 14.2825 10.3324C14.4073 10.3816 14.5403 10.4066 14.6745 10.4063C15.3871 10.4063 16.1933 9.73828 16.6141 8.72719C17.1108 7.52555 16.877 6.29613 16.0924 5.98008ZM11.5171 10.6692C10.5398 9.04746 10.1179 8.4375 8.99993 8.4375C7.88197 8.4375 7.45658 9.05133 6.47923 10.6692C5.64251 12.053 3.9515 12.1683 3.52962 13.3436C3.44403 13.5588 3.40104 13.7887 3.40306 14.0203C3.40306 14.9762 4.13431 15.75 5.03431 15.75C6.15228 15.75 7.67454 14.8574 9.00345 14.8574C10.3324 14.8574 11.8476 15.75 12.9656 15.75C13.8656 15.75 14.5933 14.9766 14.5933 14.0203C14.5941 13.7884 14.5499 13.5586 14.4632 13.3436C14.0413 12.1641 12.3538 12.053 11.5171 10.6692ZM6.76786 6.89063C6.81494 6.89067 6.86195 6.88714 6.90849 6.88008C7.72447 6.7616 8.23388 5.63098 8.04896 4.3541C7.87493 3.15035 7.14439 2.25 6.38044 2.25C6.33337 2.24996 6.28636 2.25348 6.23982 2.26055C5.42384 2.37902 4.91443 3.50965 5.09935 4.78652C5.27337 5.98676 6.00392 6.89063 6.76786 6.89063ZM12.8995 4.78652C13.0844 3.50965 12.575 2.37902 11.759 2.26055C11.7125 2.25348 11.6654 2.24996 11.6184 2.25C10.8544 2.25 10.1253 3.15035 9.95091 4.3541C9.76599 5.63098 10.2754 6.7616 11.0914 6.88008C11.1379 6.88714 11.1849 6.89067 11.232 6.89063C11.9959 6.89063 12.7265 5.98676 12.8995 4.78652ZM3.71841 10.3324C4.50556 10.016 4.73548 8.78555 4.23591 7.58531C3.81544 6.57422 3.01001 5.90625 2.29845 5.90625C2.1643 5.90587 2.03129 5.93092 1.90646 5.98008C1.11931 6.29648 0.889389 7.52695 1.38896 8.72719C1.80943 9.73828 2.61486 10.4063 3.32642 10.4063C3.46057 10.4066 3.59359 10.3816 3.71841 10.3324Z" stroke="#737373" stroke-width="1.2" stroke-miterlimit="10"/>
</svg>
