<svg width="18" height="18" viewBox="0 0 18 18" fill="none" xmlns="http://www.w3.org/2000/svg">
<path d="M3 6.75H15L14.3737 13.6358C14.3399 14.0084 14.1679 14.355 13.8917 14.6074C13.6154 14.8598 13.2547 14.9999 12.8805 15H5.1195C4.74528 14.9999 4.38463 14.8598 4.10835 14.6074C3.83207 14.355 3.66012 14.0084 3.62625 13.6358L3 6.75Z" stroke="#737373" stroke-width="1.5" stroke-linejoin="round"/>
<path d="M6 8.25V6C6 5.20435 6.31607 4.44129 6.87868 3.87868C7.44129 3.31607 8.20435 3 9 3C9.79565 3 10.5587 3.31607 11.1213 3.87868C11.6839 4.44129 12 5.20435 12 6V8.25" stroke="#737373" stroke-width="1.5" stroke-linecap="round"/>
</svg>
