<svg width="20" height="20" viewBox="0 0 20 20" fill="none" xmlns="http://www.w3.org/2000/svg">
<path d="M8.33253 13.3333H4.16586V17.5M11.6659 6.66667H15.8325V2.5M3.81836 7.5025C4.28569 6.3462 5.068 5.34418 6.07638 4.61031C7.08477 3.87643 8.27879 3.44013 9.52277 3.35098C10.7667 3.26183 12.0108 3.52342 13.1135 4.10601C14.2162 4.68859 15.1334 5.56882 15.7609 6.64667M16.1809 12.4975C15.7136 13.654 14.9313 14.6562 13.9228 15.3903C12.9144 16.1243 11.7202 16.5607 10.4761 16.6499C9.23195 16.739 7.98775 16.4773 6.88493 15.8946C5.7821 15.3119 4.86488 14.4314 4.23753 13.3533" stroke="white" stroke-width="1.5" stroke-linecap="round" stroke-linejoin="round"/>
</svg>
