<svg width="18" height="18" viewBox="0 0 18 18" fill="none" xmlns="http://www.w3.org/2000/svg">
<path d="M10.8 3.6001V5.1001M10.8 8.1001V9.6001M10.8 12.6001V14.1001M3.30005 3.6001H13.8C14.1979 3.6001 14.5794 3.75813 14.8607 4.03944C15.142 4.32074 15.3 4.70227 15.3 5.1001V7.3501C14.9022 7.3501 14.5207 7.50813 14.2394 7.78944C13.9581 8.07074 13.8 8.45227 13.8 8.8501C13.8 9.24792 13.9581 9.62945 14.2394 9.91076C14.5207 10.1921 14.9022 10.3501 15.3 10.3501V12.6001C15.3 12.9979 15.142 13.3795 14.8607 13.6608C14.5794 13.9421 14.1979 14.1001 13.8 14.1001H3.30005C2.90222 14.1001 2.52069 13.9421 2.23939 13.6608C1.95808 13.3795 1.80005 12.9979 1.80005 12.6001V10.3501C2.19787 10.3501 2.5794 10.1921 2.86071 9.91076C3.14201 9.62945 3.30005 9.24792 3.30005 8.8501C3.30005 8.45227 3.14201 8.07074 2.86071 7.78944C2.5794 7.50813 2.19787 7.3501 1.80005 7.3501V5.1001C1.80005 4.70227 1.95808 4.32074 2.23939 4.03944C2.52069 3.75813 2.90222 3.6001 3.30005 3.6001Z" stroke="#737373" stroke-width="1.5" stroke-linecap="round" stroke-linejoin="round"/>
</svg>
